<mxfile host="app.diagrams.net" agent="Mozilla/5.0 (Windows NT 10.0; Win64; x64) AppleWebKit/537.36 (KHTML, like Gecko) Chrome/136.0.0.0 Safari/537.36" version="27.0.2">
  <diagram name="Σελίδα-1" id="_Fa19jBcW2M8zPP8akAH">
    <mxGraphModel dx="3035" dy="1175" grid="1" gridSize="10" guides="1" tooltips="1" connect="1" arrows="1" fold="1" page="1" pageScale="1" pageWidth="1169" pageHeight="1654" math="0" shadow="0">
      <root>
        <mxCell id="0" />
        <mxCell id="1" parent="0" />
        <mxCell id="ddXygKk_uw5sio_xyTGk-59" value="&lt;font style=&quot;font-size: 14px;&quot;&gt;Βιβλιοθήκη&lt;/font&gt;" style="shape=umlActor;verticalLabelPosition=bottom;verticalAlign=top;html=1;outlineConnect=0;" parent="1" vertex="1">
          <mxGeometry x="-20" y="400" width="40" height="70" as="geometry" />
        </mxCell>
        <mxCell id="ddXygKk_uw5sio_xyTGk-60" value="" style="shape=umlBoundary;whiteSpace=wrap;html=1;" parent="1" vertex="1">
          <mxGeometry x="235" y="400" width="100" height="80" as="geometry" />
        </mxCell>
        <mxCell id="ddXygKk_uw5sio_xyTGk-61" value="" style="ellipse;shape=umlEntity;whiteSpace=wrap;html=1;" parent="1" vertex="1">
          <mxGeometry x="540" y="290" width="80" height="80" as="geometry" />
        </mxCell>
        <mxCell id="ddXygKk_uw5sio_xyTGk-62" value="&lt;font style=&quot;font-size: 14px;&quot;&gt;Εμφάνιση μαζικών προσφερόμεων βιβλίων&lt;/font&gt;" style="ellipse;shape=umlControl;whiteSpace=wrap;html=1;" parent="1" vertex="1">
          <mxGeometry x="370" y="240" width="115" height="115" as="geometry" />
        </mxCell>
        <mxCell id="ddXygKk_uw5sio_xyTGk-63" value="&lt;span style=&quot;font-size:12.0pt;line-height:&lt;br/&gt;115%;font-family:&amp;quot;Calibri&amp;quot;,sans-serif;mso-fareast-font-family:Aptos;mso-fareast-theme-font:&lt;br/&gt;minor-latin;mso-ansi-language:EN-US;mso-fareast-language:EN-US;mso-bidi-language:&lt;br/&gt;AR-SA&quot; lang=&quot;EN-US&quot;&gt;Manage&lt;/span&gt;&lt;span style=&quot;font-size:12.0pt;line-height:115%;&lt;br/&gt;font-family:&amp;quot;Calibri&amp;quot;,sans-serif;mso-fareast-font-family:Aptos;mso-fareast-theme-font:&lt;br/&gt;minor-latin;mso-ansi-language:EL;mso-fareast-language:EN-US;mso-bidi-language:&lt;br/&gt;AR-SA&quot; lang=&quot;EN-US&quot;&gt; &lt;/span&gt;&lt;span style=&quot;font-size:12.0pt;line-height:115%;&lt;br/&gt;font-family:&amp;quot;Calibri&amp;quot;,sans-serif;mso-fareast-font-family:Aptos;mso-fareast-theme-font:&lt;br/&gt;minor-latin;mso-ansi-language:EN-US;mso-fareast-language:EN-US;mso-bidi-language:&lt;br/&gt;AR-SA&quot; lang=&quot;EN-US&quot;&gt;Bulk&lt;/span&gt;&lt;span style=&quot;font-size:12.0pt;line-height:115%;&lt;br/&gt;font-family:&amp;quot;Calibri&amp;quot;,sans-serif;mso-fareast-font-family:Aptos;mso-fareast-theme-font:&lt;br/&gt;minor-latin;mso-ansi-language:EL;mso-fareast-language:EN-US;mso-bidi-language:&lt;br/&gt;AR-SA&quot; lang=&quot;EN-US&quot;&gt; &lt;/span&gt;&lt;span style=&quot;font-size:12.0pt;line-height:115%;&lt;br/&gt;font-family:&amp;quot;Calibri&amp;quot;,sans-serif;mso-fareast-font-family:Aptos;mso-fareast-theme-font:&lt;br/&gt;minor-latin;mso-ansi-language:EN-US;mso-fareast-language:EN-US;mso-bidi-language:&lt;br/&gt;AR-SA&quot; lang=&quot;EN-US&quot;&gt;Offers&lt;/span&gt;" style="text;html=1;align=center;verticalAlign=middle;resizable=0;points=[];autosize=1;strokeColor=none;fillColor=none;" parent="1" vertex="1">
          <mxGeometry x="215" y="370" width="160" height="30" as="geometry" />
        </mxCell>
        <mxCell id="ddXygKk_uw5sio_xyTGk-64" value="" style="shape=umlBoundary;whiteSpace=wrap;html=1;" parent="1" vertex="1">
          <mxGeometry x="225" y="560" width="100" height="80" as="geometry" />
        </mxCell>
        <mxCell id="ddXygKk_uw5sio_xyTGk-65" value="&lt;font style=&quot;font-size: 14px;&quot;&gt;Add Bulk Books Offer&lt;/font&gt;" style="text;html=1;align=center;verticalAlign=middle;resizable=0;points=[];autosize=1;strokeColor=none;fillColor=none;" parent="1" vertex="1">
          <mxGeometry x="200" y="530" width="160" height="30" as="geometry" />
        </mxCell>
        <mxCell id="ddXygKk_uw5sio_xyTGk-66" value="" style="endArrow=none;html=1;rounded=0;entryX=-0.04;entryY=0.475;entryDx=0;entryDy=0;entryPerimeter=0;" parent="1" source="ddXygKk_uw5sio_xyTGk-59" target="ddXygKk_uw5sio_xyTGk-60" edge="1">
          <mxGeometry width="50" height="50" relative="1" as="geometry">
            <mxPoint x="400" y="490" as="sourcePoint" />
            <mxPoint x="200" y="445" as="targetPoint" />
          </mxGeometry>
        </mxCell>
        <mxCell id="ddXygKk_uw5sio_xyTGk-67" value="" style="shape=umlBoundary;whiteSpace=wrap;html=1;" parent="1" vertex="1">
          <mxGeometry x="210" y="275" width="100" height="80" as="geometry" />
        </mxCell>
        <mxCell id="ddXygKk_uw5sio_xyTGk-68" value="&lt;span style=&quot;font-size: 14px;&quot;&gt;My Book Offers&lt;/span&gt;" style="text;html=1;align=center;verticalAlign=middle;resizable=0;points=[];autosize=1;strokeColor=none;fillColor=none;" parent="1" vertex="1">
          <mxGeometry x="210" y="245" width="120" height="30" as="geometry" />
        </mxCell>
        <mxCell id="ddXygKk_uw5sio_xyTGk-69" value="" style="endArrow=none;html=1;rounded=0;entryX=-0.03;entryY=0.475;entryDx=0;entryDy=0;entryPerimeter=0;" parent="1" source="ddXygKk_uw5sio_xyTGk-59" target="ddXygKk_uw5sio_xyTGk-67" edge="1">
          <mxGeometry width="50" height="50" relative="1" as="geometry">
            <mxPoint x="90" y="455" as="sourcePoint" />
            <mxPoint x="216" y="458" as="targetPoint" />
          </mxGeometry>
        </mxCell>
        <mxCell id="ddXygKk_uw5sio_xyTGk-70" value="&lt;font&gt;Επιλογή μαζικών προσφερόμενων&amp;nbsp;&lt;/font&gt;&lt;div&gt;&lt;font&gt;βιβλίων&lt;/font&gt;&lt;/div&gt;" style="text;html=1;align=center;verticalAlign=middle;resizable=0;points=[];autosize=1;strokeColor=none;fillColor=none;rotation=-35;" parent="1" vertex="1">
          <mxGeometry x="5" y="330" width="210" height="40" as="geometry" />
        </mxCell>
        <mxCell id="ddXygKk_uw5sio_xyTGk-71" value="" style="endArrow=none;html=1;rounded=0;entryX=0.017;entryY=0.39;entryDx=0;entryDy=0;entryPerimeter=0;exitX=1.01;exitY=0.425;exitDx=0;exitDy=0;exitPerimeter=0;" parent="1" source="ddXygKk_uw5sio_xyTGk-67" target="ddXygKk_uw5sio_xyTGk-62" edge="1">
          <mxGeometry width="50" height="50" relative="1" as="geometry">
            <mxPoint x="90" y="455" as="sourcePoint" />
            <mxPoint x="216" y="458" as="targetPoint" />
          </mxGeometry>
        </mxCell>
        <mxCell id="ddXygKk_uw5sio_xyTGk-72" value="" style="endArrow=none;html=1;rounded=0;entryX=0.314;entryY=1;entryDx=0;entryDy=0;entryPerimeter=0;exitX=1.03;exitY=0.438;exitDx=0;exitDy=0;exitPerimeter=0;" parent="1" source="ddXygKk_uw5sio_xyTGk-60" target="ddXygKk_uw5sio_xyTGk-62" edge="1">
          <mxGeometry width="50" height="50" relative="1" as="geometry">
            <mxPoint x="323" y="335" as="sourcePoint" />
            <mxPoint x="380" y="350" as="targetPoint" />
          </mxGeometry>
        </mxCell>
        <mxCell id="ddXygKk_uw5sio_xyTGk-73" value="&lt;font style=&quot;font-size: 14px;&quot;&gt;Βάση Δεδομένων&lt;/font&gt;" style="text;html=1;align=center;verticalAlign=middle;resizable=0;points=[];autosize=1;strokeColor=none;fillColor=none;" parent="1" vertex="1">
          <mxGeometry x="525" y="260" width="130" height="30" as="geometry" />
        </mxCell>
        <mxCell id="ddXygKk_uw5sio_xyTGk-74" value="" style="endArrow=none;html=1;rounded=0;entryX=0;entryY=0.5;entryDx=0;entryDy=0;exitX=0.957;exitY=0.413;exitDx=0;exitDy=0;exitPerimeter=0;" parent="1" source="ddXygKk_uw5sio_xyTGk-62" target="ddXygKk_uw5sio_xyTGk-61" edge="1">
          <mxGeometry width="50" height="50" relative="1" as="geometry">
            <mxPoint x="323" y="455" as="sourcePoint" />
            <mxPoint x="402" y="380" as="targetPoint" />
          </mxGeometry>
        </mxCell>
        <mxCell id="ddXygKk_uw5sio_xyTGk-75" value="" style="endArrow=none;html=1;rounded=0;entryX=-0.03;entryY=0.488;entryDx=0;entryDy=0;entryPerimeter=0;" parent="1" source="ddXygKk_uw5sio_xyTGk-59" target="ddXygKk_uw5sio_xyTGk-64" edge="1">
          <mxGeometry width="50" height="50" relative="1" as="geometry">
            <mxPoint x="90" y="455" as="sourcePoint" />
            <mxPoint x="216" y="458" as="targetPoint" />
          </mxGeometry>
        </mxCell>
        <mxCell id="ddXygKk_uw5sio_xyTGk-76" value="&lt;font style=&quot;font-size: 14px;&quot;&gt;Εμφάνιση φόρμα συμπλήρωσης πολλαπλών βιβλίων&lt;/font&gt;&lt;div&gt;&lt;span style=&quot;font-size: 14px;&quot;&gt;και Event Date&lt;/span&gt;&lt;/div&gt;" style="ellipse;shape=umlControl;whiteSpace=wrap;html=1;" parent="1" vertex="1">
          <mxGeometry x="355" y="463" width="140" height="100" as="geometry" />
        </mxCell>
        <mxCell id="ddXygKk_uw5sio_xyTGk-77" value="" style="endArrow=none;html=1;rounded=0;entryX=0.229;entryY=0.938;entryDx=0;entryDy=0;entryPerimeter=0;exitX=0.907;exitY=0.211;exitDx=0;exitDy=0;exitPerimeter=0;" parent="1" source="ddXygKk_uw5sio_xyTGk-64" target="ddXygKk_uw5sio_xyTGk-76" edge="1">
          <mxGeometry width="50" height="50" relative="1" as="geometry">
            <mxPoint x="320" y="590" as="sourcePoint" />
            <mxPoint x="389" y="520" as="targetPoint" />
          </mxGeometry>
        </mxCell>
        <mxCell id="ddXygKk_uw5sio_xyTGk-78" value="" style="endArrow=none;html=1;rounded=0;entryX=0.079;entryY=0.3;entryDx=0;entryDy=0;entryPerimeter=0;exitX=0.93;exitY=0.838;exitDx=0;exitDy=0;exitPerimeter=0;" parent="1" source="ddXygKk_uw5sio_xyTGk-60" target="ddXygKk_uw5sio_xyTGk-76" edge="1">
          <mxGeometry width="50" height="50" relative="1" as="geometry">
            <mxPoint x="310" y="480" as="sourcePoint" />
            <mxPoint x="367" y="495" as="targetPoint" />
          </mxGeometry>
        </mxCell>
        <mxCell id="ddXygKk_uw5sio_xyTGk-79" value="&lt;font style=&quot;font-size: 13px;&quot;&gt;Επιλογή προσθήκης&lt;/font&gt;&lt;div&gt;&lt;font style=&quot;font-size: 13px;&quot;&gt;νέας μαζικής προσφοράς βιβλίων&lt;/font&gt;&lt;/div&gt;" style="text;html=1;align=center;verticalAlign=middle;resizable=0;points=[];autosize=1;strokeColor=none;fillColor=none;rotation=0;" parent="1" vertex="1">
          <mxGeometry x="15" y="400" width="220" height="40" as="geometry" />
        </mxCell>
        <mxCell id="ddXygKk_uw5sio_xyTGk-80" value="&lt;font style=&quot;font-size: 13px;&quot;&gt;Συμπλήρωση στοιχείων&amp;nbsp;&lt;/font&gt;&lt;div&gt;&lt;font style=&quot;font-size: 13px;&quot;&gt;προσφερόμενων βιβλίων&lt;/font&gt;&lt;/div&gt;" style="text;html=1;align=center;verticalAlign=middle;resizable=0;points=[];autosize=1;strokeColor=none;fillColor=none;rotation=30;" parent="1" vertex="1">
          <mxGeometry x="55" y="490" width="170" height="40" as="geometry" />
        </mxCell>
        <mxCell id="ddXygKk_uw5sio_xyTGk-81" value="&lt;font style=&quot;font-size: 14px;&quot;&gt;Ελέγχει Εγκυρότητα στοιχείων&amp;nbsp;&lt;/font&gt;" style="ellipse;shape=umlControl;whiteSpace=wrap;html=1;" parent="1" vertex="1">
          <mxGeometry x="400" y="600" width="80" height="90" as="geometry" />
        </mxCell>
        <mxCell id="ddXygKk_uw5sio_xyTGk-82" value="" style="endArrow=none;html=1;rounded=0;exitX=0.964;exitY=0.639;exitDx=0;exitDy=0;exitPerimeter=0;" parent="1" source="ddXygKk_uw5sio_xyTGk-64" target="ddXygKk_uw5sio_xyTGk-81" edge="1">
          <mxGeometry width="50" height="50" relative="1" as="geometry">
            <mxPoint x="296" y="620" as="sourcePoint" />
            <mxPoint x="360" y="638" as="targetPoint" />
          </mxGeometry>
        </mxCell>
        <mxCell id="ddXygKk_uw5sio_xyTGk-83" value="" style="endArrow=none;html=1;rounded=0;" parent="1" source="ddXygKk_uw5sio_xyTGk-84" target="ddXygKk_uw5sio_xyTGk-61" edge="1">
          <mxGeometry width="50" height="50" relative="1" as="geometry">
            <mxPoint x="470" y="500" as="sourcePoint" />
            <mxPoint x="508" y="568.5" as="targetPoint" />
          </mxGeometry>
        </mxCell>
        <mxCell id="ddXygKk_uw5sio_xyTGk-84" value="&lt;font style=&quot;font-size: 14px;&quot;&gt;Καταχωρεί μαζική προσφορά βιβλίων&lt;/font&gt;" style="ellipse;shape=umlControl;whiteSpace=wrap;html=1;" parent="1" vertex="1">
          <mxGeometry x="585" y="510" width="95" height="100" as="geometry" />
        </mxCell>
        <mxCell id="ddXygKk_uw5sio_xyTGk-85" value="" style="ellipse;shape=umlEntity;whiteSpace=wrap;html=1;" parent="1" vertex="1">
          <mxGeometry x="830" y="430" width="80" height="80" as="geometry" />
        </mxCell>
        <mxCell id="ddXygKk_uw5sio_xyTGk-86" value="&lt;font style=&quot;font-size: 14px;&quot;&gt;Bulk Offer&lt;/font&gt;" style="text;html=1;align=center;verticalAlign=middle;resizable=0;points=[];autosize=1;strokeColor=none;fillColor=none;" parent="1" vertex="1">
          <mxGeometry x="825" y="520" width="90" height="30" as="geometry" />
        </mxCell>
        <mxCell id="ddXygKk_uw5sio_xyTGk-87" value="&lt;font style=&quot;font-size: 14px;&quot;&gt;Δημιουργία bulk offer&lt;/font&gt;" style="ellipse;shape=umlControl;whiteSpace=wrap;html=1;" parent="1" vertex="1">
          <mxGeometry x="690" y="375" width="80" height="90" as="geometry" />
        </mxCell>
        <mxCell id="ddXygKk_uw5sio_xyTGk-88" value="" style="endArrow=none;html=1;rounded=0;entryX=0.375;entryY=0;entryDx=0;entryDy=0;entryPerimeter=0;" parent="1" source="ddXygKk_uw5sio_xyTGk-87" target="ddXygKk_uw5sio_xyTGk-85" edge="1">
          <mxGeometry width="50" height="50" relative="1" as="geometry">
            <mxPoint x="677" y="614" as="sourcePoint" />
            <mxPoint x="740" y="630" as="targetPoint" />
          </mxGeometry>
        </mxCell>
        <mxCell id="ddXygKk_uw5sio_xyTGk-89" value="" style="endArrow=none;html=1;rounded=0;" parent="1" source="ddXygKk_uw5sio_xyTGk-84" target="ddXygKk_uw5sio_xyTGk-87" edge="1">
          <mxGeometry width="50" height="50" relative="1" as="geometry">
            <mxPoint x="600" y="560" as="sourcePoint" />
            <mxPoint x="627" y="574" as="targetPoint" />
          </mxGeometry>
        </mxCell>
        <mxCell id="ddXygKk_uw5sio_xyTGk-90" value="&lt;font style=&quot;font-size: 14px;&quot;&gt;Εμφάνιση παραθύρου επιβεβαίσωσης&lt;/font&gt;" style="ellipse;shape=umlControl;whiteSpace=wrap;html=1;" parent="1" vertex="1">
          <mxGeometry x="670" y="605" width="120" height="110" as="geometry" />
        </mxCell>
        <mxCell id="ddXygKk_uw5sio_xyTGk-91" value="" style="endArrow=none;html=1;rounded=0;" parent="1" source="ddXygKk_uw5sio_xyTGk-87" target="ddXygKk_uw5sio_xyTGk-90" edge="1">
          <mxGeometry width="50" height="50" relative="1" as="geometry">
            <mxPoint x="723" y="489" as="sourcePoint" />
            <mxPoint x="780" y="510" as="targetPoint" />
          </mxGeometry>
        </mxCell>
        <mxCell id="ddXygKk_uw5sio_xyTGk-92" value="" style="shape=umlBoundary;whiteSpace=wrap;html=1;" parent="1" vertex="1">
          <mxGeometry x="155" y="100" width="100" height="80" as="geometry" />
        </mxCell>
        <mxCell id="ddXygKk_uw5sio_xyTGk-93" value="&lt;font style=&quot;color: light-dark(rgb(0, 0, 0), rgb(255, 255, 255));&quot;&gt;&lt;span style=&quot;font-size: 12pt; line-height: 115%; font-family: Calibri, sans-serif;&quot; lang=&quot;EN-US&quot;&gt;Bulk&lt;/span&gt;&lt;span style=&quot;font-size: 12pt; line-height: 115%; font-family: Calibri, sans-serif;&quot; lang=&quot;EN-US&quot;&gt; &lt;/span&gt;&lt;span style=&quot;font-size: 12pt; line-height: 115%; font-family: Calibri, sans-serif;&quot; lang=&quot;EN-US&quot;&gt;Offer&lt;/span&gt;&lt;span style=&quot;font-size: 12pt; line-height: 115%; font-family: Calibri, sans-serif;&quot; lang=&quot;EN-US&quot;&gt; &lt;/span&gt;&lt;span style=&quot;font-size: 12pt; line-height: 115%; font-family: Calibri, sans-serif;&quot; lang=&quot;EN-US&quot;&gt;Created&lt;/span&gt;&lt;span style=&quot;font-size: 12pt; line-height: 115%; font-family: Calibri, sans-serif;&quot; lang=&quot;EN-US&quot;&gt;&amp;nbsp;&lt;/span&gt;&lt;/font&gt;&lt;div&gt;&lt;font style=&quot;color: light-dark(rgb(0, 0, 0), rgb(255, 255, 255));&quot;&gt;&lt;span style=&quot;font-size: 12pt; line-height: 115%; font-family: Calibri, sans-serif;&quot; lang=&quot;EN-US&quot;&gt;Successfully&lt;/span&gt;&lt;/font&gt;&lt;/div&gt;" style="text;html=1;align=center;verticalAlign=middle;resizable=0;points=[];autosize=1;strokeColor=none;fillColor=none;" parent="1" vertex="1">
          <mxGeometry x="145" y="180" width="150" height="50" as="geometry" />
        </mxCell>
        <mxCell id="ddXygKk_uw5sio_xyTGk-94" value="" style="endArrow=none;html=1;rounded=0;" parent="1" source="ddXygKk_uw5sio_xyTGk-90" target="ddXygKk_uw5sio_xyTGk-92" edge="1">
          <mxGeometry width="50" height="50" relative="1" as="geometry">
            <mxPoint x="570" y="650" as="sourcePoint" />
            <mxPoint x="560" y="745" as="targetPoint" />
            <Array as="points">
              <mxPoint x="1050" y="450" />
              <mxPoint x="630" y="130" />
            </Array>
          </mxGeometry>
        </mxCell>
        <mxCell id="ddXygKk_uw5sio_xyTGk-95" value="" style="endArrow=none;html=1;rounded=0;entryX=-0.03;entryY=0.525;entryDx=0;entryDy=0;entryPerimeter=0;" parent="1" source="ddXygKk_uw5sio_xyTGk-59" target="ddXygKk_uw5sio_xyTGk-92" edge="1">
          <mxGeometry width="50" height="50" relative="1" as="geometry">
            <mxPoint x="8" y="590" as="sourcePoint" />
            <mxPoint x="195" y="729" as="targetPoint" />
          </mxGeometry>
        </mxCell>
        <mxCell id="ddXygKk_uw5sio_xyTGk-97" value="" style="shape=umlBoundary;whiteSpace=wrap;html=1;strokeColor=#FF3333;" parent="1" vertex="1">
          <mxGeometry x="-140" y="775" width="100" height="80" as="geometry" />
        </mxCell>
        <mxCell id="ddXygKk_uw5sio_xyTGk-98" value="&lt;font style=&quot;font-size: 14px;&quot;&gt;Add New Book Offer&lt;/font&gt;" style="text;html=1;align=center;verticalAlign=middle;resizable=0;points=[];autosize=1;strokeColor=none;fillColor=none;fontColor=#FF3333;" parent="1" vertex="1">
          <mxGeometry x="-150" y="855" width="150" height="30" as="geometry" />
        </mxCell>
        <mxCell id="ddXygKk_uw5sio_xyTGk-99" value="" style="endArrow=none;html=1;rounded=0;fontColor=#000000;strokeColor=#FF3333;" parent="1" source="ddXygKk_uw5sio_xyTGk-59" target="ddXygKk_uw5sio_xyTGk-97" edge="1">
          <mxGeometry width="50" height="50" relative="1" as="geometry">
            <mxPoint x="30" y="473" as="sourcePoint" />
            <mxPoint x="237" y="767" as="targetPoint" />
          </mxGeometry>
        </mxCell>
        <mxCell id="ddXygKk_uw5sio_xyTGk-100" value="&lt;font style=&quot;font-size: 13px;&quot;&gt;Συμπληρωση ελλιπών&amp;nbsp;&lt;/font&gt;&lt;span style=&quot;font-size: 13px; background-color: transparent; color: light-dark(rgb(255, 51, 51), rgb(255, 119, 119));&quot;&gt;στοιχείων&amp;nbsp;&lt;/span&gt;&lt;div&gt;&lt;div&gt;&lt;font style=&quot;font-size: 13px;&quot;&gt;προσφερόμενων&amp;nbsp;&lt;/font&gt;&lt;span style=&quot;font-size: 13px; background-color: transparent; color: light-dark(rgb(255, 51, 51), rgb(255, 119, 119));&quot;&gt;βιβλίων&lt;/span&gt;&lt;/div&gt;&lt;/div&gt;" style="text;html=1;align=center;verticalAlign=middle;resizable=0;points=[];autosize=1;strokeColor=none;fillColor=none;rotation=-76;fontColor=#FF3333;" parent="1" vertex="1">
          <mxGeometry x="-180" y="610" width="210" height="40" as="geometry" />
        </mxCell>
        <mxCell id="ddXygKk_uw5sio_xyTGk-101" value="" style="endArrow=none;html=1;rounded=0;entryX=0.9;entryY=0.139;entryDx=0;entryDy=0;entryPerimeter=0;strokeColor=#FF3333;" parent="1" source="ddXygKk_uw5sio_xyTGk-81" target="ddXygKk_uw5sio_xyTGk-97" edge="1">
          <mxGeometry width="50" height="50" relative="1" as="geometry">
            <mxPoint x="607" y="685" as="sourcePoint" />
            <mxPoint x="340" y="752" as="targetPoint" />
          </mxGeometry>
        </mxCell>
        <mxCell id="ddXygKk_uw5sio_xyTGk-103" value="" style="shape=umlBoundary;whiteSpace=wrap;html=1;strokeColor=#FF3333;" parent="1" vertex="1">
          <mxGeometry x="-220" y="480" width="100" height="80" as="geometry" />
        </mxCell>
        <mxCell id="ddXygKk_uw5sio_xyTGk-104" value="&lt;font style=&quot;font-size: 14px;&quot;&gt;Wrong Book Details&lt;/font&gt;" style="text;html=1;align=center;verticalAlign=middle;resizable=0;points=[];autosize=1;strokeColor=none;fillColor=none;fontColor=#FF3333;" parent="1" vertex="1">
          <mxGeometry x="-230" y="450" width="150" height="30" as="geometry" />
        </mxCell>
        <mxCell id="ddXygKk_uw5sio_xyTGk-105" value="&lt;span style=&quot;font-size: 14px;&quot;&gt;&lt;font style=&quot;color: rgb(255, 51, 51);&quot;&gt;Εμφάνιση μηνύματος ελλιπών στοιχείων βιβλίου&lt;/font&gt;&lt;/span&gt;" style="ellipse;shape=umlControl;whiteSpace=wrap;html=1;strokeColor=#FF3333;" parent="1" vertex="1">
          <mxGeometry x="-250" y="630" width="120" height="112" as="geometry" />
        </mxCell>
        <mxCell id="ddXygKk_uw5sio_xyTGk-106" value="" style="endArrow=none;html=1;rounded=0;exitX=0.57;exitY=1.025;exitDx=0;exitDy=0;exitPerimeter=0;strokeColor=#FF3333;" parent="1" source="ddXygKk_uw5sio_xyTGk-103" target="ddXygKk_uw5sio_xyTGk-105" edge="1">
          <mxGeometry width="50" height="50" relative="1" as="geometry">
            <mxPoint x="10" y="870" as="sourcePoint" />
            <mxPoint x="73" y="886" as="targetPoint" />
          </mxGeometry>
        </mxCell>
        <mxCell id="ddXygKk_uw5sio_xyTGk-107" value="" style="endArrow=none;html=1;rounded=0;exitX=0.03;exitY=0.513;exitDx=0;exitDy=0;exitPerimeter=0;strokeColor=#FF3333;" parent="1" source="ddXygKk_uw5sio_xyTGk-97" target="ddXygKk_uw5sio_xyTGk-105" edge="1">
          <mxGeometry width="50" height="50" relative="1" as="geometry">
            <mxPoint x="323" y="497" as="sourcePoint" />
            <mxPoint x="386" y="513" as="targetPoint" />
          </mxGeometry>
        </mxCell>
        <mxCell id="ddXygKk_uw5sio_xyTGk-109" value="" style="endArrow=none;html=1;rounded=0;strokeColor=light-dark(#FF3333,#FF3333);" parent="1" source="ddXygKk_uw5sio_xyTGk-81" target="ddXygKk_uw5sio_xyTGk-110" edge="1">
          <mxGeometry width="50" height="50" relative="1" as="geometry">
            <mxPoint x="306" y="630" as="sourcePoint" />
            <mxPoint x="614.7694114831825" y="824.8107560133362" as="targetPoint" />
          </mxGeometry>
        </mxCell>
        <mxCell id="ddXygKk_uw5sio_xyTGk-110" value="&lt;span style=&quot;font-size: 14px;&quot;&gt;&lt;font style=&quot;color: rgb(255, 51, 51);&quot;&gt;Εμφάνιση μηνύματος διπλότυπου&lt;/font&gt;&lt;/span&gt;&lt;div&gt;&lt;span style=&quot;font-size: 14px;&quot;&gt;&lt;font style=&quot;color: rgb(255, 51, 51);&quot;&gt;βιβλιου&amp;nbsp;&lt;/font&gt;&lt;/span&gt;&lt;/div&gt;" style="ellipse;shape=umlControl;whiteSpace=wrap;html=1;strokeColor=#FF3333;" parent="1" vertex="1">
          <mxGeometry x="770" y="780" width="120" height="112" as="geometry" />
        </mxCell>
        <mxCell id="ddXygKk_uw5sio_xyTGk-113" value="" style="shape=umlBoundary;whiteSpace=wrap;html=1;strokeColor=#FF3333;" parent="1" vertex="1">
          <mxGeometry x="590" y="787" width="100" height="80" as="geometry" />
        </mxCell>
        <mxCell id="ddXygKk_uw5sio_xyTGk-114" value="" style="endArrow=none;html=1;rounded=0;strokeColor=#FF3333;" parent="1" source="ddXygKk_uw5sio_xyTGk-113" target="ddXygKk_uw5sio_xyTGk-110" edge="1">
          <mxGeometry width="50" height="50" relative="1" as="geometry">
            <mxPoint x="-107" y="784" as="sourcePoint" />
            <mxPoint x="110" y="901" as="targetPoint" />
          </mxGeometry>
        </mxCell>
        <mxCell id="ddXygKk_uw5sio_xyTGk-116" value="&lt;font style=&quot;font-size: 14px; color: rgb(255, 51, 51);&quot;&gt;Duplicate&amp;nbsp;&lt;/font&gt;&lt;span style=&quot;color: light-dark(rgb(255, 51, 51), rgb(255, 119, 119)); font-size: 14px; background-color: transparent;&quot;&gt;Book&amp;nbsp;&lt;/span&gt;&lt;div&gt;&lt;span style=&quot;color: light-dark(rgb(255, 51, 51), rgb(255, 119, 119)); font-size: 14px; background-color: transparent;&quot;&gt;in&amp;nbsp;&lt;/span&gt;&lt;span style=&quot;background-color: transparent; color: rgb(255, 51, 51); font-size: 14px;&quot;&gt;Bulk&amp;nbsp;&lt;/span&gt;&lt;span style=&quot;background-color: transparent; color: light-dark(rgb(255, 51, 51), rgb(255, 119, 119)); font-size: 14px;&quot;&gt;Offer&lt;/span&gt;&lt;/div&gt;" style="text;html=1;align=center;verticalAlign=middle;resizable=0;points=[];autosize=1;strokeColor=none;fillColor=none;" parent="1" vertex="1">
          <mxGeometry x="590" y="860" width="120" height="50" as="geometry" />
        </mxCell>
        <mxCell id="ddXygKk_uw5sio_xyTGk-117" value="" style="endArrow=none;html=1;rounded=0;entryX=0.225;entryY=1.05;entryDx=0;entryDy=0;entryPerimeter=0;" parent="1" source="ddXygKk_uw5sio_xyTGk-81" target="ddXygKk_uw5sio_xyTGk-61" edge="1">
          <mxGeometry width="50" height="50" relative="1" as="geometry">
            <mxPoint x="590" y="570" as="sourcePoint" />
            <mxPoint x="590" y="380" as="targetPoint" />
          </mxGeometry>
        </mxCell>
        <mxCell id="ddXygKk_uw5sio_xyTGk-120" value="" style="endArrow=none;html=1;rounded=0;entryX=0.964;entryY=0.457;entryDx=0;entryDy=0;entryPerimeter=0;exitX=0.098;exitY=0.759;exitDx=0;exitDy=0;exitPerimeter=0;" parent="1" source="ddXygKk_uw5sio_xyTGk-84" target="ddXygKk_uw5sio_xyTGk-81" edge="1">
          <mxGeometry width="50" height="50" relative="1" as="geometry">
            <mxPoint x="523" y="608" as="sourcePoint" />
            <mxPoint x="593.98778786609" y="626.0185144790962" as="targetPoint" />
          </mxGeometry>
        </mxCell>
        <mxCell id="ddXygKk_uw5sio_xyTGk-122" value="Έγκυρα Στοιχεία" style="text;html=1;align=center;verticalAlign=middle;resizable=0;points=[];autosize=1;strokeColor=none;fillColor=none;rotation=-30;" parent="1" vertex="1">
          <mxGeometry x="460" y="575" width="110" height="30" as="geometry" />
        </mxCell>
        <mxCell id="ddXygKk_uw5sio_xyTGk-123" value="&lt;span style=&quot;font-size: 12pt; font-family: Calibri, sans-serif;&quot; lang=&quot;EL&quot;&gt;&lt;font style=&quot;color: light-dark(rgb(255, 51, 51), rgb(255, 51, 51));&quot;&gt;Διπλότυπο Βιβλίο&amp;nbsp;&lt;/font&gt;&lt;/span&gt;&lt;div&gt;&lt;span style=&quot;font-size: 12pt; font-family: Calibri, sans-serif; color: rgb(192, 0, 0);&quot; lang=&quot;EL&quot;&gt;&lt;font style=&quot;color: light-dark(rgb(255, 51, 51), rgb(255, 51, 51));&quot;&gt;στη Μαζική Προσφορά&lt;/font&gt;&lt;/span&gt;&lt;/div&gt;" style="text;html=1;align=center;verticalAlign=middle;resizable=0;points=[];autosize=1;strokeColor=none;fillColor=none;rotation=25;fontSize=14;fontColor=light-dark(#FF3333,#FF3333);" parent="1" vertex="1">
          <mxGeometry x="580" y="700" width="170" height="50" as="geometry" />
        </mxCell>
        <mxCell id="ddXygKk_uw5sio_xyTGk-125" value="&lt;font style=&quot;font-size: 14px; color: rgb(255, 51, 51);&quot;&gt;&lt;font style=&quot;&quot;&gt;Εμφάνιση μηνύματος&amp;nbsp;&lt;/font&gt;&lt;span style=&quot;line-height: 115%;&quot;&gt;&amp;nbsp;&lt;/span&gt;&lt;/font&gt;&lt;div&gt;&lt;span style=&quot;line-height: 115%;&quot;&gt;&lt;font style=&quot;font-size: 14px; color: rgb(255, 51, 51);&quot;&gt;Λανθασμένης ημερομηνίας&amp;nbsp;&lt;/font&gt;&lt;/span&gt;&lt;/div&gt;&lt;div&gt;&lt;span style=&quot;font-family: Calibri, sans-serif;&quot; lang=&quot;EN-US&quot;&gt;&lt;font style=&quot;font-size: 14px; color: rgb(255, 51, 51);&quot;&gt;Event&lt;/font&gt;&lt;/span&gt;&lt;/div&gt;" style="ellipse;shape=umlControl;whiteSpace=wrap;html=1;strokeColor=#FF3333;" parent="1" vertex="1">
          <mxGeometry x="290" y="773" width="120" height="112" as="geometry" />
        </mxCell>
        <mxCell id="ddXygKk_uw5sio_xyTGk-126" value="" style="endArrow=none;html=1;rounded=0;strokeColor=light-dark(#FF3333,#FF3333);exitX=0.317;exitY=0.982;exitDx=0;exitDy=0;exitPerimeter=0;entryX=1;entryY=0.325;entryDx=0;entryDy=0;entryPerimeter=0;" parent="1" source="ddXygKk_uw5sio_xyTGk-125" target="ddXygKk_uw5sio_xyTGk-127" edge="1">
          <mxGeometry width="50" height="50" relative="1" as="geometry">
            <mxPoint x="-170" y="347" as="sourcePoint" />
            <mxPoint x="-225" y="370" as="targetPoint" />
          </mxGeometry>
        </mxCell>
        <mxCell id="ddXygKk_uw5sio_xyTGk-127" value="" style="shape=umlBoundary;whiteSpace=wrap;html=1;strokeColor=#FF3333;" parent="1" vertex="1">
          <mxGeometry x="165" y="885" width="100" height="80" as="geometry" />
        </mxCell>
        <mxCell id="ddXygKk_uw5sio_xyTGk-129" value="&lt;font style=&quot;font-size: 14px;&quot;&gt;Wrong Event Date&lt;/font&gt;" style="text;html=1;align=center;verticalAlign=middle;resizable=0;points=[];autosize=1;strokeColor=none;fillColor=none;fontColor=#FF3333;" parent="1" vertex="1">
          <mxGeometry x="150" y="965" width="140" height="30" as="geometry" />
        </mxCell>
        <mxCell id="ddXygKk_uw5sio_xyTGk-130" value="&lt;span style=&quot;font-size:12.0pt;line-height:115%;&lt;br/&gt;font-family:&amp;quot;Calibri&amp;quot;,sans-serif;mso-fareast-font-family:Aptos;mso-fareast-theme-font:&lt;br/&gt;minor-latin;mso-ansi-language:EL;mso-fareast-language:EN-US;mso-bidi-language:&lt;br/&gt;AR-SA&quot;&gt;Εσφαλμένη μαζική εισαγωγή&lt;/span&gt;" style="text;html=1;align=center;verticalAlign=middle;resizable=0;points=[];autosize=1;strokeColor=none;fillColor=none;rotation=-15;fontColor=#FF3333;" parent="1" vertex="1">
          <mxGeometry x="165" y="660" width="230" height="30" as="geometry" />
        </mxCell>
        <mxCell id="q35idtGrEf9Pdwb9oV4j-1" value="" style="shape=umlBoundary;whiteSpace=wrap;html=1;strokeColor=#FF3333;" parent="1" vertex="1">
          <mxGeometry x="55" y="780" width="100" height="80" as="geometry" />
        </mxCell>
        <mxCell id="q35idtGrEf9Pdwb9oV4j-6" value="" style="endArrow=none;html=1;rounded=0;strokeColor=#FF3333;entryX=0.263;entryY=0.944;entryDx=0;entryDy=0;entryPerimeter=0;" parent="1" source="q35idtGrEf9Pdwb9oV4j-1" target="ddXygKk_uw5sio_xyTGk-81" edge="1">
          <mxGeometry width="50" height="50" relative="1" as="geometry">
            <mxPoint x="370" y="680" as="sourcePoint" />
            <mxPoint x="360" y="890" as="targetPoint" />
          </mxGeometry>
        </mxCell>
        <mxCell id="q35idtGrEf9Pdwb9oV4j-7" value="" style="endArrow=none;html=1;rounded=0;fontColor=#000000;strokeColor=#FF3333;" parent="1" source="ddXygKk_uw5sio_xyTGk-59" target="q35idtGrEf9Pdwb9oV4j-1" edge="1">
          <mxGeometry width="50" height="50" relative="1" as="geometry">
            <mxPoint x="2" y="480" as="sourcePoint" />
            <mxPoint x="-71" y="785" as="targetPoint" />
          </mxGeometry>
        </mxCell>
        <mxCell id="q35idtGrEf9Pdwb9oV4j-8" value="Συμπλήρωση σωστής&amp;nbsp;&lt;div&gt;ημερομηνίας&lt;/div&gt;" style="text;html=1;align=center;verticalAlign=middle;resizable=0;points=[];autosize=1;strokeColor=none;fillColor=none;rotation=70;fontColor=light-dark(#FF3333,#FF3333);" parent="1" vertex="1">
          <mxGeometry x="15" y="630" width="140" height="40" as="geometry" />
        </mxCell>
        <mxCell id="q35idtGrEf9Pdwb9oV4j-9" value="&lt;font style=&quot;font-size: 14px;&quot;&gt;Add New Book Offer&lt;/font&gt;" style="text;html=1;align=center;verticalAlign=middle;resizable=0;points=[];autosize=1;strokeColor=none;fillColor=none;fontColor=#FF3333;" parent="1" vertex="1">
          <mxGeometry x="50" y="855" width="150" height="30" as="geometry" />
        </mxCell>
        <mxCell id="q35idtGrEf9Pdwb9oV4j-10" value="Λανθασμένη&amp;nbsp;&lt;div&gt;ημερομηνία&amp;nbsp;&lt;div&gt;Event Date&amp;nbsp;&lt;/div&gt;&lt;/div&gt;" style="text;html=1;align=center;verticalAlign=middle;resizable=0;points=[];autosize=1;strokeColor=none;fillColor=none;fontSize=14;fontColor=light-dark(#FF3333,#FF3333);rotation=-15;" parent="1" vertex="1">
          <mxGeometry x="150" y="720" width="110" height="60" as="geometry" />
        </mxCell>
        <mxCell id="q35idtGrEf9Pdwb9oV4j-11" value="" style="endArrow=none;html=1;rounded=0;strokeColor=light-dark(#FF3333,#FF3333);" parent="1" source="q35idtGrEf9Pdwb9oV4j-1" target="ddXygKk_uw5sio_xyTGk-125" edge="1">
          <mxGeometry width="50" height="50" relative="1" as="geometry">
            <mxPoint x="156" y="977" as="sourcePoint" />
            <mxPoint x="61" y="993" as="targetPoint" />
          </mxGeometry>
        </mxCell>
        <mxCell id="q35idtGrEf9Pdwb9oV4j-13" value="&lt;font style=&quot;font-size: 14px;&quot;&gt;Ενημέρωση χρηστών μέσω email για την προσφορά&lt;/font&gt;" style="ellipse;shape=umlControl;whiteSpace=wrap;html=1;" parent="1" vertex="1">
          <mxGeometry x="-105" y="160" width="120" height="110" as="geometry" />
        </mxCell>
        <mxCell id="q35idtGrEf9Pdwb9oV4j-14" value="" style="endArrow=none;html=1;rounded=0;entryX=0;entryY=0.45;entryDx=0;entryDy=0;entryPerimeter=0;exitX=1.008;exitY=0.555;exitDx=0;exitDy=0;exitPerimeter=0;" parent="1" source="q35idtGrEf9Pdwb9oV4j-13" target="ddXygKk_uw5sio_xyTGk-92" edge="1">
          <mxGeometry width="50" height="50" relative="1" as="geometry">
            <mxPoint x="321" y="319" as="sourcePoint" />
            <mxPoint x="377" y="304" as="targetPoint" />
          </mxGeometry>
        </mxCell>
        <mxCell id="q35idtGrEf9Pdwb9oV4j-15" value="" style="shape=umlBoundary;whiteSpace=wrap;html=1;strokeColor=#FF3333;" parent="1" vertex="1">
          <mxGeometry x="380" y="995" width="100" height="80" as="geometry" />
        </mxCell>
        <mxCell id="q35idtGrEf9Pdwb9oV4j-16" value="&lt;font style=&quot;font-size: 14px;&quot;&gt;Add New Book Offer&lt;/font&gt;" style="text;html=1;align=center;verticalAlign=middle;resizable=0;points=[];autosize=1;strokeColor=none;fillColor=none;fontColor=#FF3333;" parent="1" vertex="1">
          <mxGeometry x="370" y="1070" width="150" height="30" as="geometry" />
        </mxCell>
        <mxCell id="q35idtGrEf9Pdwb9oV4j-17" value="" style="endArrow=none;html=1;rounded=0;fontColor=#000000;strokeColor=#FF3333;" parent="1" source="ddXygKk_uw5sio_xyTGk-59" edge="1">
          <mxGeometry width="50" height="50" relative="1" as="geometry">
            <mxPoint x="20" y="480" as="sourcePoint" />
            <mxPoint x="10" y="960" as="targetPoint" />
          </mxGeometry>
        </mxCell>
        <mxCell id="q35idtGrEf9Pdwb9oV4j-18" value="" style="endArrow=none;html=1;rounded=0;entryX=0.06;entryY=0.525;entryDx=0;entryDy=0;entryPerimeter=0;strokeColor=light-dark(#FF3333,#FF3333);" parent="1" target="q35idtGrEf9Pdwb9oV4j-15" edge="1">
          <mxGeometry width="50" height="50" relative="1" as="geometry">
            <mxPoint x="10" y="960" as="sourcePoint" />
            <mxPoint x="250" y="650" as="targetPoint" />
          </mxGeometry>
        </mxCell>
        <mxCell id="q35idtGrEf9Pdwb9oV4j-19" value="Προσαρμόζει&amp;nbsp;&lt;span style=&quot;background-color: transparent;&quot;&gt;τον αριθμό&amp;nbsp;&lt;/span&gt;&lt;div&gt;&lt;div&gt;των βιλίων&lt;/div&gt;&lt;/div&gt;" style="text;html=1;align=center;verticalAlign=middle;resizable=0;points=[];autosize=1;strokeColor=none;fillColor=none;fontSize=14;fontColor=light-dark(#FF3333,#FF3333);rotation=10;" parent="1" vertex="1">
          <mxGeometry x="115" y="1002" width="180" height="50" as="geometry" />
        </mxCell>
        <mxCell id="q35idtGrEf9Pdwb9oV4j-20" value="" style="endArrow=none;html=1;rounded=0;fontColor=#000000;strokeColor=#FF3333;exitX=0.513;exitY=1.022;exitDx=0;exitDy=0;exitPerimeter=0;" parent="1" source="ddXygKk_uw5sio_xyTGk-81" target="q35idtGrEf9Pdwb9oV4j-15" edge="1">
          <mxGeometry width="50" height="50" relative="1" as="geometry">
            <mxPoint x="11" y="480" as="sourcePoint" />
            <mxPoint x="480" y="1020" as="targetPoint" />
          </mxGeometry>
        </mxCell>
        <mxCell id="q35idtGrEf9Pdwb9oV4j-22" value="Μέγιστο όριο βιβλίων&amp;nbsp;&lt;div&gt;ανά προσφορά&lt;/div&gt;" style="text;html=1;align=center;verticalAlign=middle;resizable=0;points=[];autosize=1;strokeColor=none;fillColor=none;fontSize=14;rotation=80;fontColor=light-dark(#FF3333,#FF3333);" parent="1" vertex="1">
          <mxGeometry x="400" y="760" width="160" height="50" as="geometry" />
        </mxCell>
        <mxCell id="q35idtGrEf9Pdwb9oV4j-23" value="&lt;font style=&quot;font-size: 14px; color: rgb(255, 51, 51);&quot;&gt;&lt;font style=&quot;&quot;&gt;Εμφάνιση μηνύματος υπέρβασης ορίου βιβλίων&lt;/font&gt;&lt;/font&gt;" style="ellipse;shape=umlControl;whiteSpace=wrap;html=1;strokeColor=#FF3333;" parent="1" vertex="1">
          <mxGeometry x="570" y="924" width="120" height="112" as="geometry" />
        </mxCell>
        <mxCell id="q35idtGrEf9Pdwb9oV4j-24" value="" style="endArrow=none;html=1;rounded=0;strokeColor=light-dark(#FF3333,#FF3333);exitX=-0.025;exitY=0.607;exitDx=0;exitDy=0;exitPerimeter=0;" parent="1" source="q35idtGrEf9Pdwb9oV4j-23" target="q35idtGrEf9Pdwb9oV4j-15" edge="1">
          <mxGeometry width="50" height="50" relative="1" as="geometry">
            <mxPoint x="338" y="893" as="sourcePoint" />
            <mxPoint x="275" y="921" as="targetPoint" />
          </mxGeometry>
        </mxCell>
        <mxCell id="q35idtGrEf9Pdwb9oV4j-25" value="" style="shape=umlBoundary;whiteSpace=wrap;html=1;strokeColor=#FF3333;" parent="1" vertex="1">
          <mxGeometry x="750" y="940" width="100" height="80" as="geometry" />
        </mxCell>
        <mxCell id="q35idtGrEf9Pdwb9oV4j-26" value="&lt;font style=&quot;font-size: 14px;&quot;&gt;Exceeds Limit&lt;/font&gt;" style="text;html=1;align=center;verticalAlign=middle;resizable=0;points=[];autosize=1;strokeColor=none;fillColor=none;fontColor=#FF3333;" parent="1" vertex="1">
          <mxGeometry x="750" y="1016" width="110" height="30" as="geometry" />
        </mxCell>
        <mxCell id="q35idtGrEf9Pdwb9oV4j-27" value="" style="endArrow=none;html=1;rounded=0;strokeColor=light-dark(#FF3333,#FF3333);exitX=0.01;exitY=0.55;exitDx=0;exitDy=0;exitPerimeter=0;" parent="1" source="q35idtGrEf9Pdwb9oV4j-25" target="q35idtGrEf9Pdwb9oV4j-23" edge="1">
          <mxGeometry width="50" height="50" relative="1" as="geometry">
            <mxPoint x="577" y="1002" as="sourcePoint" />
            <mxPoint x="530" y="1038" as="targetPoint" />
          </mxGeometry>
        </mxCell>
      </root>
    </mxGraphModel>
  </diagram>
</mxfile>
